<svg version="1.0" xmlns="http://www.w3.org/2000/svg"
 viewBox="0 0 1194.000000 229.000000"
 preserveAspectRatio="xMidYMid meet">

<g transform="translate(0.000000,229.000000) scale(0.100000,-0.100000)"
fill="currenColor" stroke="none">
<path d="M11152 1970 c-70 -25 -115 -54 -132 -84 -18 -34 -8 -105 25 -188 l26
-66 -65 -67 c-195 -200 -306 -501 -309 -835 -1 -137 12 -210 37 -210 29 0 127
35 200 72 126 63 241 144 310 219 l64 70 11 -53 c6 -29 22 -106 35 -172 13
-65 30 -123 37 -128 25 -17 225 10 256 35 10 7 7 19 -11 51 -14 22 -34 86 -46
141 -70 329 -138 556 -255 850 -78 198 -107 297 -102 355 3 32 -15 34 -81 10z
m-7 -511 c44 -102 105 -285 112 -336 10 -72 -62 -203 -179 -328 -66 -71 -121
-110 -143 -101 -24 9 -28 74 -16 236 18 224 44 354 93 470 24 58 80 141 92
137 5 -2 24 -37 41 -78z"/>
<path d="M3788 1956 c-85 -28 -135 -67 -143 -109 -6 -33 17 -134 50 -219 l19
-47 -68 -72 c-151 -159 -243 -358 -287 -619 -17 -103 -18 -328 0 -359 13 -23
16 -24 95 -18 100 8 172 28 169 48 -1 8 -12 41 -24 74 -31 85 -38 298 -14 450
25 166 78 310 141 384 33 39 29 43 85 -107 82 -218 166 -564 185 -760 8 -84
20 -102 72 -102 76 0 222 31 222 47 0 2 -11 24 -25 48 -17 28 -36 93 -55 186
-56 272 -150 586 -248 819 -59 141 -92 254 -92 315 0 30 -4 56 -8 59 -4 2 -37
-5 -74 -18z"/>
<path d="M1450 1955 c-69 -20 -102 -34 -137 -61 l-32 -24 24 -53 c24 -49 25
-62 25 -247 0 -107 -5 -370 -11 -585 -8 -250 -9 -404 -3 -430 9 -36 13 -40 44
-43 48 -5 195 17 216 33 16 11 16 15 -1 56 -24 57 -33 278 -15 335 19 59 90
163 166 243 76 81 162 156 170 148 3 -3 0 -169 -6 -368 -7 -217 -8 -380 -3
-404 l9 -40 75 1 c86 1 178 20 185 38 3 7 -3 30 -12 52 -28 65 -34 258 -24
780 8 469 5 553 -19 577 -20 20 -207 -47 -239 -86 -10 -12 -7 -25 14 -68 26
-50 27 -60 28 -213 1 -98 -3 -161 -9 -163 -34 -11 -240 -142 -283 -179 -27
-24 -53 -44 -57 -44 -4 0 -5 161 -3 358 3 373 0 403 -40 401 -9 0 -37 -7 -62
-14z"/>
<path d="M4995 1953 c-220 -46 -405 -176 -480 -335 -51 -107 -75 -213 -75
-328 0 -172 46 -345 128 -486 58 -101 108 -203 123 -253 l13 -43 59 7 c78 8
154 37 251 94 144 85 222 183 246 310 18 98 -7 151 -72 151 -30 0 -139 -47
-172 -74 -20 -16 -19 -16 2 -36 12 -11 25 -32 28 -46 10 -38 -2 -118 -26 -171
-21 -49 -75 -113 -94 -113 -6 0 -32 44 -58 98 -26 53 -69 138 -96 187 -45 86
-93 229 -108 322 -6 41 -6 41 32 52 22 6 65 11 97 11 98 0 155 -38 176 -117 7
-23 16 -45 22 -49 6 -3 31 13 55 37 83 81 124 208 72 223 -114 31 -306 10
-440 -49 -16 -6 -18 0 -18 72 0 125 48 272 116 352 33 40 110 91 136 91 11 0
26 -16 38 -41 25 -49 60 -179 60 -225 0 -77 31 -86 61 -18 25 59 76 262 85
337 l7 57 -49 -1 c-27 0 -80 -7 -119 -16z"/>
<path d="M5581 1954 c-59 -16 -151 -62 -158 -79 -2 -6 8 -36 22 -66 24 -52 25
-62 25 -244 0 -104 -5 -325 -10 -490 -14 -433 -14 -519 0 -545 12 -22 17 -22
90 -17 80 6 167 24 174 36 3 4 -5 33 -16 66 -16 46 -21 87 -22 180 -1 111 1
124 26 178 34 71 95 151 184 241 70 69 132 122 137 115 2 -2 -1 -103 -5 -224
-14 -424 -14 -548 1 -574 13 -23 16 -24 91 -18 87 7 167 25 176 39 3 5 -2 25
-11 44 -34 71 -37 149 -34 756 3 442 1 600 -8 609 -24 24 -235 -49 -250 -87
-3 -7 6 -35 18 -61 22 -43 24 -64 27 -213 l4 -165 -55 -27 c-76 -37 -183 -107
-240 -156 -27 -23 -53 -42 -58 -42 -7 0 -8 115 -4 353 7 366 4 408 -32 406
-10 0 -42 -7 -72 -15z"/>
<path d="M6995 1953 c-138 -29 -291 -108 -378 -195 -116 -117 -181 -353 -157
-568 17 -150 46 -241 131 -406 42 -84 85 -177 95 -209 10 -32 25 -60 32 -63
55 -21 277 67 383 151 95 76 157 194 166 317 4 56 2 69 -17 93 -15 19 -30 27
-53 27 -34 0 -119 -36 -167 -70 l-29 -20 24 -24 c33 -33 40 -82 21 -155 -20
-77 -50 -137 -89 -178 -31 -33 -47 -35 -47 -5 0 9 -40 100 -90 202 -119 245
-142 331 -144 530 -1 198 29 310 109 398 40 45 117 87 140 78 30 -11 76 -150
90 -268 5 -49 10 -58 26 -58 12 0 24 10 30 28 21 54 80 297 86 354 l6 58 -49
-1 c-27 0 -80 -7 -119 -16z"/>
<path d="M7503 1960 c-59 -12 -83 -27 -83 -53 1 -63 82 -361 105 -386 22 -23
45 -6 45 33 0 69 55 279 83 314 10 13 95 16 114 4 15 -10 30 -76 39 -172 3
-41 0 -259 -7 -485 -16 -469 -17 -638 -6 -679 l8 -29 83 6 c86 6 173 24 181
37 3 4 -5 30 -18 56 -22 48 -22 57 -25 499 -1 248 1 522 5 610 l8 160 39 3
c67 6 81 -3 108 -65 31 -70 55 -146 62 -193 15 -105 17 -110 36 -110 16 0 25
18 49 98 39 125 58 210 67 295 l7 67 -429 -1 c-236 -1 -448 -5 -471 -9z"/>
<path d="M8729 1959 c-55 -13 -142 -54 -162 -76 -17 -20 -17 -22 8 -68 24 -45
25 -57 25 -199 0 -83 -5 -353 -11 -601 -9 -338 -8 -457 0 -479 l12 -29 82 6
c101 8 173 28 170 48 -1 8 -10 39 -18 69 -10 34 -17 99 -18 170 -2 134 9 166
93 280 53 72 233 250 252 250 8 0 9 -25 5 -82 -14 -179 -20 -682 -8 -712 l12
-29 82 6 c45 4 102 13 127 20 51 15 53 24 23 97 -17 42 -18 87 -18 682 0 473
-3 640 -12 649 -23 23 -197 -35 -237 -80 -17 -18 -16 -21 5 -63 27 -52 41
-185 32 -304 l-6 -80 -56 -29 c-76 -40 -221 -137 -250 -169 -49 -53 -54 -41
-46 127 3 83 7 244 8 357 2 257 1 262 -94 239z"/>
<path d="M9753 1955 c-66 -18 -152 -61 -159 -80 -3 -8 4 -36 17 -62 22 -45 23
-58 21 -238 0 -104 -6 -368 -13 -585 -9 -305 -9 -405 1 -439 l12 -44 82 6 c86
6 173 24 181 37 3 4 -5 30 -18 56 l-22 49 -1 642 c0 515 -3 644 -13 657 -16
19 -20 19 -88 1z"/>
<path d="M365 1953 c-16 -2 -47 -9 -68 -14 -43 -11 -43 -5 -5 -104 20 -55 22
-77 23 -285 0 -124 -4 -360 -10 -525 -11 -341 -10 -457 5 -485 10 -19 22 -20
305 -20 180 0 315 4 347 11 56 12 148 54 160 73 13 20 8 91 -12 172 -32 127
-96 245 -195 359 -48 55 -96 119 -107 143 -20 43 -19 50 7 115 11 26 -20 22
-94 -13 -88 -42 -121 -67 -137 -107 -13 -30 -13 -38 4 -76 11 -23 54 -82 97
-132 95 -111 158 -215 190 -318 40 -127 53 -117 -149 -117 l-174 0 -11 63
c-12 71 -15 655 -4 970 l6 197 127 0 127 0 27 -56 c16 -33 35 -99 45 -155 10
-55 20 -102 24 -105 14 -14 37 21 61 94 33 102 64 227 68 277 l3 40 -315 1
c-173 1 -328 -1 -345 -3z"/>
<path d="M2445 1955 c-5 -2 -30 -6 -55 -10 -74 -10 -76 -13 -44 -91 27 -67 28
-75 32 -279 2 -115 -3 -370 -11 -565 -13 -323 -11 -449 8 -479 9 -15 577 -15
647 0 80 17 157 58 165 87 16 65 -35 256 -97 367 -16 28 -69 98 -118 155 -49
58 -94 115 -100 127 -15 27 -16 100 -2 108 17 11 11 35 -9 35 -31 0 -179 -79
-201 -107 -45 -57 -24 -113 90 -243 72 -82 113 -143 151 -224 33 -71 70 -191
61 -200 -3 -3 -83 -6 -178 -6 l-172 0 -6 28 c-14 56 -18 363 -11 776 l7 426
130 0 129 0 25 -55 c14 -31 32 -93 41 -138 8 -45 17 -92 19 -105 6 -32 25 -23
48 22 26 53 83 263 88 322 l3 49 -315 2 c-173 1 -319 0 -325 -2z"/>
<path d="M10404 1941 c-116 -33 -275 -137 -364 -238 -91 -103 -152 -255 -154
-378 l-1 -80 46 -60 c121 -157 248 -384 299 -535 55 -162 48 -150 90 -150 52
0 189 27 205 40 11 9 10 17 -5 43 -10 18 -40 84 -65 147 -66 164 -166 352
-246 461 -103 141 -114 163 -112 239 1 70 35 182 77 254 28 48 118 136 139
136 8 0 24 -21 35 -47 19 -44 29 -87 50 -213 11 -67 35 -65 62 7 33 88 80 292
80 345 l0 48 -37 -1 c-21 0 -65 -8 -99 -18z"/>
</g>
</svg>
