<svg version="1.0" xmlns="http://www.w3.org/2000/svg"
 width="252.000000pt" height="242.000000pt" viewBox="0 0 252.000000 242.000000"
 preserveAspectRatio="xMidYMid meet">

<g transform="translate(0.000000,242.000000) scale(0.100000,-0.100000)"
fill="currentColor" stroke="none">
<path d="M662 2399 c-84 -11 -162 -34 -249 -74 -74 -34 -213 -119 -225 -139
-4 -6 -8 -32 -8 -58 l0 -48 -45 0 -44 0 -3 -67 -3 -68 -31 2 -31 3 -5 -843
c-3 -478 -1 -856 4 -874 5 -18 23 -42 41 -55 l32 -23 461 -3 462 -3 26 -39
c16 -25 46 -50 79 -67 44 -23 64 -28 132 -28 67 0 88 5 131 27 48 25 104 78
104 98 0 5 188 9 431 10 473 0 465 -1 522 62 l27 31 0 848 c0 672 -3 849 -12
850 -7 1 -24 2 -38 3 -24 1 -25 4 -28 68 l-3 67 -37 3 c-37 3 -37 3 -40 53 -4
57 -9 65 -70 106 -158 107 -325 159 -513 159 -173 0 -295 -36 -422 -126 -26
-19 -49 -34 -52 -34 -3 0 -14 8 -25 18 -70 65 -225 128 -353 142 -93 11 -125
11 -215 -1z m246 -135 c105 -21 207 -73 283 -144 l63 -59 51 48 c95 90 190
134 338 157 152 23 292 -4 459 -88 l78 -38 0 -739 0 -739 -48 18 c-76 29 -194
50 -282 50 -178 0 -360 -71 -478 -188 -38 -37 -80 -82 -94 -100 l-24 -33 -29
41 c-79 114 -246 229 -386 264 -138 35 -311 26 -459 -24 -33 -11 -62 -20 -65
-20 -3 0 -5 330 -5 733 l0 733 75 38 c192 96 356 124 523 90z m1400 -1820 c-2
-1 -39 15 -83 37 -92 45 -207 83 -315 104 l-75 14 90 -4 c112 -5 182 -23 284
-74 77 -38 79 -39 85 -18 3 12 7 351 8 752 l3 730 2 -769 c2 -423 2 -770 1
-772z m-2121 1384 c-2 -24 -4 -7 -4 37 0 44 2 63 4 43 2 -21 2 -57 0 -80z
m-57 -698 c0 -401 -2 -730 -4 -730 -2 0 -11 -3 -20 -6 -15 -6 -16 61 -16 714
0 396 3 727 6 736 3 9 12 16 20 16 12 0 14 -113 14 -730z m2260 -12 c-1 -656
-2 -741 -15 -724 -23 30 -22 1466 0 1466 13 0 15 -89 15 -742z m-2203 540 c-2
-13 -4 -5 -4 17 -1 22 1 32 4 23 2 -10 2 -28 0 -40z m433 -1070 c-118 -20
-229 -53 -332 -98 l-108 -48 2 67 c1 56 2 59 5 19 2 -27 5 -48 7 -48 2 0 46
20 97 44 110 52 204 75 309 74 l75 -1 -55 -9z m271 -142 c46 -14 129 -53 129
-60 0 -2 -18 3 -40 10 -161 56 -447 35 -674 -48 l-61 -23 290 -7 c258 -6 397
-17 413 -33 3 -3 -187 -5 -421 -5 -235 0 -427 4 -427 8 0 5 28 16 62 27 35 10
92 33 128 50 82 41 207 83 285 95 79 12 258 4 316 -14z m1099 -1 c77 -18 148
-45 250 -95 41 -21 92 -40 113 -44 20 -4 37 -11 37 -16 0 -6 -162 -10 -427 -9
-256 0 -416 4 -399 9 69 21 268 32 466 26 115 -4 211 -3 218 2 14 9 -80 43
-213 77 -136 35 -371 41 -479 14 -51 -14 -57 -4 -10 16 107 46 298 54 444 20z"/>
<path d="M548 2089 c-2 -6 -2 -27 0 -46 l4 -34 62 3 61 3 3 43 3 42 -65 0
c-38 0 -66 -4 -68 -11z"/>
<path d="M780 2060 c0 -36 3 -40 25 -40 23 0 25 4 25 40 0 36 -2 40 -25 40
-22 0 -25 -4 -25 -40z"/>
<path d="M1830 2055 l0 -45 59 0 59 0 4 41 c2 22 2 42 -1 45 -2 2 -31 4 -63 4
l-58 0 0 -45z"/>
<path d="M1606 1939 c-43 -64 -44 -78 -10 -118 32 -38 104 -61 193 -61 102 0
111 -5 111 -55 0 -41 -1 -43 -34 -48 -31 -5 -249 6 -286 15 -11 2 -16 -7 -18
-34 -2 -28 3 -43 25 -68 28 -31 29 -31 153 -37 137 -6 195 4 226 38 16 17 20
40 22 129 5 159 -8 172 -182 184 -98 7 -115 16 -146 75 l-17 34 -37 -54z"/>
<path d="M545 1927 c-31 -54 -32 -77 -1 -110 31 -33 75 -44 219 -52 l117 -7 0
-54 c0 -52 -1 -54 -27 -54 -47 1 -256 18 -300 26 l-43 7 0 -36 c0 -90 23 -102
205 -112 128 -7 197 -19 232 -41 12 -8 25 -14 28 -14 10 0 5 329 -6 353 -17
38 -53 49 -194 59 -135 9 -168 20 -180 58 -10 30 -21 25 -50 -23z"/>
<path d="M1048 1816 c-16 -24 -28 -50 -28 -58 0 -7 18 -32 40 -53 l40 -39 0
-129 0 -129 50 -60 c27 -33 54 -67 59 -76 7 -13 13 -14 21 -6 8 8 11 72 8 221
l-3 210 -29 42 c-25 35 -115 121 -127 121 -2 0 -16 -20 -31 -44z"/>
<path d="M1412 1786 c-28 -30 -54 -65 -57 -78 -8 -32 -2 -794 6 -803 4 -3 32
20 63 52 l56 58 0 413 c0 226 -4 412 -9 412 -4 0 -31 -24 -59 -54z"/>
<path d="M556 1487 c-36 -47 -44 -92 -20 -119 29 -32 71 -45 169 -52 50 -4
109 -9 133 -12 l42 -5 0 -59 0 -60 -27 11 c-34 13 -320 36 -329 26 -8 -8 -8
-59 1 -86 8 -28 26 -32 172 -41 137 -9 212 -30 249 -71 9 -10 21 -19 26 -19 4
0 8 75 8 166 0 248 -14 265 -223 272 l-118 4 -29 39 -28 40 -26 -34z"/>
<path d="M1608 1456 c-41 -63 -37 -93 17 -126 26 -16 57 -21 154 -27 l122 -6
-3 -41 -3 -41 -115 -6 c-63 -3 -127 -11 -142 -17 -26 -11 -28 -15 -28 -73 0
-54 2 -60 18 -54 41 17 93 25 178 25 162 0 184 21 184 170 0 150 -22 170 -191
170 l-98 0 -28 35 c-15 19 -30 35 -33 35 -3 0 -17 -20 -32 -44z"/>
<path d="M1043 1275 l-27 -53 42 -46 42 -46 0 -94 0 -94 43 -48 c24 -27 52
-61 64 -76 l20 -27 7 61 c12 118 7 278 -10 313 -9 19 -47 63 -84 98 l-69 65
-28 -53z"/>
<path d="M550 930 l0 -51 63 3 62 3 3 48 3 47 -65 0 -66 0 0 -50z"/>
<path d="M1840 930 l0 -51 58 3 57 3 3 48 3 47 -60 0 -61 0 0 -50z"/>
</g>
</svg>
