<svg xmlns="http://www.w3.org/2000/svg" width="32" height="32" viewBox="0 0 256 256"><path fill="currentColor" d="M160 32.25v191.44a8.29 8.29 0 0 1-3.91 7.18a8 8 0 0 1-9-.56l-65.57-51a4 4 0 0 1-1.52-3.15V79.84a4 4 0 0 1 1.55-3.15l65.57-51a8 8 0 0 1 10 .16a8.27 8.27 0 0 1 2.88 6.4M60 80H32a16 16 0 0 0-16 16v64a16 16 0 0 0 16 16h28a4 4 0 0 0 4-4V84a4 4 0 0 0-4-4m126.77 20.84a8 8 0 0 0-.72 11.3a24 24 0 0 1 0 31.72a8 8 0 1 0 12 10.58a40 40 0 0 0 0-52.88a8 8 0 0 0-11.31-.72Zm40.89-26.17a8 8 0 1 0-11.92 10.66a64 64 0 0 1 0 85.34a8 8 0 1 0 11.92 10.66a80 80 0 0 0 0-106.66"/></svg>